<?xml version="1.0" encoding="UTF-8"?>
<svg id="Layer_2" data-name="Layer 2" xmlns="http://www.w3.org/2000/svg" viewBox="0 0 432 432">
  <defs>
    <style>
      .cls-1 {
        fill: #0075ff;
      }

      .cls-1, .cls-2 {
        fill-rule: evenodd;
      }

      .cls-2 {
        fill: #ff0091;
      }
    </style>
  </defs>
  <g id="Layer_1-2" data-name="Layer 1">
    <g>
      <polygon class="cls-1" points="208.29 131.22 223.71 131.22 223.71 0 208.29 0 208.29 131.22 208.29 131.22"/>
      <polygon class="cls-1" points="150.6 161.51 161.51 150.6 68.72 57.81 57.81 68.72 150.6 161.51 150.6 161.51"/>
      <polygon class="cls-1" points="131.22 223.71 131.22 208.29 0 208.29 0 223.71 131.22 223.71 131.22 223.71"/>
      <polygon class="cls-1" points="161.51 281.4 150.6 270.49 57.81 363.28 68.72 374.19 161.51 281.4 161.51 281.4"/>
      <polygon class="cls-1" points="223.71 432 208.29 432 208.29 300.78 223.71 300.78 223.71 432 223.71 432"/>
      <polygon class="cls-1" points="374.19 363.28 363.28 374.19 270.49 281.4 281.4 270.49 374.19 363.28 374.19 363.28"/>
      <polygon class="cls-1" points="432 208.29 432 223.71 300.78 223.71 300.78 208.29 432 208.29 432 208.29"/>
      <polygon class="cls-1" points="363.28 57.81 374.19 68.72 281.4 161.51 270.49 150.6 363.28 57.81 363.28 57.81"/>
      <path class="cls-2" d="M264.45,426.64l-28.61-106.77c-2.81-10.48,2.58-21.39,12.6-25.54,10.01-4.15,21.55-.23,26.97,9.16l55.27,95.73-13.36,7.71-55.27-95.73c-1.56-2.7-4.83-3.81-7.71-2.62-2.88,1.19-4.41,4.29-3.6,7.3l28.61,106.77-14.9,3.99h0Z"/>
      <path class="cls-2" d="M399.2,330.68l-95.73-55.27c-9.39-5.42-13.31-16.95-9.16-26.97,4.15-10.01,15.08-15.4,25.54-12.6l106.77,28.61-3.99,14.9-106.77-28.61c-3.01-.81-6.11.72-7.3,3.6-1.19,2.88-.08,6.15,2.62,7.71l95.73,55.27-7.71,13.36h0Z"/>
      <path class="cls-2" d="M426.64,167.55l-106.77,28.61c-10.48,2.81-21.39-2.58-25.54-12.6-4.15-10.01-.23-21.55,9.16-26.97l95.73-55.27,7.71,13.36-95.73,55.27c-2.7,1.56-3.81,4.83-2.62,7.71,1.19,2.88,4.29,4.41,7.3,3.6l106.77-28.61,3.99,14.9h0Z"/>
      <path class="cls-2" d="M167.55,5.36l28.61,106.77c2.81,10.48-2.58,21.39-12.6,25.54-10.01,4.15-21.55.23-26.97-9.16l-55.27-95.73,13.36-7.71,55.27,95.73c1.56,2.7,4.83,3.81,7.71,2.62,2.88-1.19,4.41-4.29,3.6-7.3l-28.61-106.77,14.9-3.99h0Z"/>
      <path class="cls-2" d="M32.79,101.32l95.73,55.27c9.39,5.42,13.31,16.95,9.16,26.97-4.15,10.01-15.08,15.4-25.54,12.6L5.36,167.55l3.99-14.9,106.77,28.61c3.01.81,6.11-.72,7.3-3.6,1.19-2.88.08-6.15-2.62-7.71L25.08,114.68l7.71-13.36h0Z"/>
      <path class="cls-2" d="M5.36,264.45l106.77-28.61c10.48-2.81,21.39,2.58,25.54,12.6,4.15,10.01.23,21.55-9.16,26.97l-95.73,55.27-7.71-13.36,95.73-55.27c2.7-1.56,3.81-4.83,2.62-7.71-1.19-2.88-4.29-4.41-7.3-3.6l-106.77,28.61-3.99-14.9h0Z"/>
      <path class="cls-2" d="M330.68,32.79l-55.27,95.73c-5.42,9.39-16.95,13.31-26.97,9.15-10.01-4.15-15.4-15.08-12.6-25.54l28.61-106.77,14.9,3.99-28.61,106.77c-.81,3.01.72,6.11,3.6,7.3,2.88,1.19,6.15.08,7.71-2.62l55.27-95.73,13.36,7.71h0Z"/>
      <path class="cls-2" d="M101.32,399.21l55.27-95.73c5.42-9.39,16.95-13.31,26.97-9.15,10.01,4.15,15.4,15.08,12.6,25.54l-28.61,106.77-14.9-3.99,28.61-106.77c.81-3.01-.72-6.11-3.6-7.3-2.88-1.19-6.15-.08-7.71,2.62l-55.27,95.73-13.36-7.71h0Z"/>
    </g>
  </g>
</svg>